<svg xmlns="http://www.w3.org/2000/svg" xmlns:xlink="http://www.w3.org/1999/xlink" width="2000" zoomAndPan="magnify" viewBox="0 0 1500 1499.999933" height="2000" preserveAspectRatio="xMidYMid meet" version="1.0"><defs><clipPath id="dbae2317d2"><path d="M 430 202 L 906 202 L 906 477 L 430 477 Z M 430 202 " clip-rule="nonzero"/></clipPath><clipPath id="1e974238fd"><path d="M 665.699219 67 L 1383.417969 481.375 L 834.042969 1432.921875 L 116.324219 1018.546875 Z M 665.699219 67 " clip-rule="nonzero"/></clipPath><clipPath id="63abf9bae0"><path d="M 665.699219 67 L 1383.417969 481.375 L 834.042969 1432.921875 L 116.324219 1018.546875 Z M 665.699219 67 " clip-rule="nonzero"/></clipPath><clipPath id="61d1dfac33"><path d="M 273 474 L 1227 474 L 1227 1026 L 273 1026 Z M 273 474 " clip-rule="nonzero"/></clipPath><clipPath id="4e0646c05d"><path d="M 665.699219 67 L 1383.417969 481.375 L 834.042969 1432.921875 L 116.324219 1018.546875 Z M 665.699219 67 " clip-rule="nonzero"/></clipPath><clipPath id="a77cf7c89d"><path d="M 665.699219 67 L 1383.417969 481.375 L 834.042969 1432.921875 L 116.324219 1018.546875 Z M 665.699219 67 " clip-rule="nonzero"/></clipPath><clipPath id="f3b2ee40f1"><path d="M 595 1022 L 1070 1022 L 1070 1297 L 595 1297 Z M 595 1022 " clip-rule="nonzero"/></clipPath><clipPath id="18793e0798"><path d="M 665.699219 67 L 1383.417969 481.375 L 834.042969 1432.921875 L 116.324219 1018.546875 Z M 665.699219 67 " clip-rule="nonzero"/></clipPath><clipPath id="17234d42f4"><path d="M 665.699219 67 L 1383.417969 481.375 L 834.042969 1432.921875 L 116.324219 1018.546875 Z M 665.699219 67 " clip-rule="nonzero"/></clipPath></defs><rect x="-150" width="1800" fill="#ffffff" y="-149.999993" height="1799.99992" fill-opacity="1"/><rect x="-150" width="1800" fill="#ffffff" y="-149.999993" height="1799.99992" fill-opacity="1"/><g clip-path="url(#dbae2317d2)"><g clip-path="url(#1e974238fd)"><g clip-path="url(#63abf9bae0)"><path fill="#4118d5" d="M 905.070312 205.167969 L 587.210938 202.832031 L 430.304688 474.597656 L 748.164062 476.9375 Z M 905.070312 205.167969 " fill-opacity="1" fill-rule="nonzero"/></g></g></g><g clip-path="url(#61d1dfac33)"><g clip-path="url(#4e0646c05d)"><g clip-path="url(#a77cf7c89d)"><path fill="#4118d5" d="M 908.839844 751.117188 L 1069.617188 1025.121094 L 1226.519531 753.351562 L 1065.746094 479.347656 L 748.0625 477.113281 L 591.246094 748.730469 L 430.289062 474.625 L 273.382812 746.394531 L 434.339844 1020.5 L 752.019531 1022.734375 Z M 908.839844 751.117188 " fill-opacity="1" fill-rule="nonzero"/></g></g></g><g clip-path="url(#f3b2ee40f1)"><g clip-path="url(#18793e0798)"><g clip-path="url(#17234d42f4)"><path fill="#4118d5" d="M 595.027344 1294.65625 L 912.710938 1296.890625 L 1069.617188 1025.121094 L 751.933594 1022.886719 Z M 595.027344 1294.65625 " fill-opacity="1" fill-rule="nonzero"/></g></g></g></svg>